<svg width="14" height="14" viewBox="0 0 14 14" fill="none" xmlns="http://www.w3.org/2000/svg">
<path d="M12.0903 9.34797L12.8468 9.82796C12.8935 9.8573 12.9321 9.89911 12.959 9.94927C12.9859 9.99943 13 10.0562 13 10.114C13 10.1717 12.9859 10.2285 12.959 10.2786C12.9321 10.3288 12.8935 10.3706 12.8468 10.4L7.32436 13.9049C7.22622 13.9671 7.11417 14 7 14C6.88583 14 6.77378 13.9671 6.67565 13.9049L1.15411 10.4C1.10746 10.3706 1.06879 10.3288 1.04193 10.2786C1.01507 10.2285 1.00094 10.1717 1.00094 10.114C1.00094 10.0562 1.01507 9.99943 1.04193 9.94927C1.06879 9.89911 1.10746 9.8573 1.15411 9.82796L1.91063 9.34797L7 12.5779L12.0903 9.34797ZM12.0903 6.21801L12.8468 6.698C12.8933 6.7274 12.9317 6.76918 12.9584 6.81924C12.9852 6.86929 12.9992 6.9259 12.9992 6.9835C12.9992 7.0411 12.9852 7.09771 12.9584 7.14776C12.9317 7.19782 12.8933 7.2396 12.8468 7.269L7 10.9799L1.15317 7.27C1.10652 7.24066 1.06786 7.19885 1.04099 7.14869C1.01413 7.09853 1 7.04177 1 6.984C1 6.92623 1.01413 6.86947 1.04099 6.81931C1.06786 6.76915 1.10652 6.72734 1.15317 6.698L1.91063 6.21801L7 9.44697L12.0903 6.21701V6.21801ZM7.32248 0.0940941L12.8468 3.60005C12.8935 3.62938 12.9321 3.6712 12.959 3.72135C12.9859 3.77151 13 3.82828 13 3.88604C13 3.94381 12.9859 4.00057 12.959 4.05073C12.9321 4.10089 12.8935 4.1427 12.8468 4.17204L7 7.88199L1.15317 4.17204C1.10652 4.1427 1.06786 4.10089 1.04099 4.05073C1.01413 4.00057 1 3.94381 1 3.88604C1 3.82828 1.01413 3.77151 1.04099 3.72135C1.06786 3.6712 1.10652 3.62938 1.15317 3.60005L6.67565 0.0950941C6.77378 0.0328521 6.88583 0 7 0C7.11417 0 7.22622 0.0328521 7.32436 0.0950941L7.32248 0.0940941ZM7 1.44308L3.15086 3.88604L7 6.32901L10.8491 3.88604L7 1.44308Z" fill="black"/>
</svg>
