<svg width="14" height="14" viewBox="0 0 14 14" fill="none" xmlns="http://www.w3.org/2000/svg">
<g clip-path="url(#clip0_1045_1487)">
<path d="M4.50984 1.09676e-05H1.70283C1.33432 0.000432366 0.981022 0.14701 0.720444 0.407589C0.459866 0.668167 0.313288 1.02147 0.312866 1.38998V12.61C0.313288 12.9785 0.459866 13.3318 0.720444 13.5924C0.981022 13.853 1.33432 13.9996 1.70283 14H4.50984C4.87835 13.9996 5.23165 13.853 5.49223 13.5924C5.75281 13.3318 5.89938 12.9785 5.89981 12.61V1.38998C5.89938 1.02147 5.75281 0.668167 5.49223 0.407589C5.23165 0.14701 4.87835 0.000432366 4.50984 1.09676e-05ZM1.70283 0.926656H4.50984C4.63272 0.926656 4.75057 0.975471 4.83746 1.06236C4.92435 1.14925 4.97316 1.2671 4.97316 1.38998V3.47493H1.23951V1.38998C1.23972 1.26716 1.2886 1.14944 1.37545 1.06259C1.46229 0.975749 1.58002 0.926867 1.70283 0.926656ZM4.50984 13.0734H1.70283C1.58002 13.0731 1.46229 13.0243 1.37545 12.9374C1.2886 12.8506 1.23972 12.7328 1.23951 12.61V4.40158H4.97316V12.61C4.97295 12.7328 4.92407 12.8506 4.83722 12.9374C4.75038 13.0243 4.63265 13.0731 4.50984 13.0734ZM10.7329 1.09676e-05H7.92505C7.55661 0.000432704 7.20339 0.147036 6.94294 0.407637C6.68249 0.668238 6.53609 1.02154 6.53588 1.38998V12.61C6.53609 12.9785 6.68249 13.3318 6.94294 13.5924C7.20339 13.853 7.55661 13.9996 7.92505 14H10.7329C11.1014 13.9996 11.4547 13.853 11.7152 13.5924C11.9758 13.3318 12.1224 12.9785 12.1228 12.61V1.38998C12.1224 1.02147 11.9758 0.668167 11.7152 0.407589C11.4547 0.14701 11.1014 0.00043237 10.7329 1.09676e-05ZM7.92505 0.926656H10.7329C10.8557 0.926867 10.9734 0.975749 11.0602 1.06259C11.1471 1.14944 11.196 1.26716 11.1962 1.38998V3.47493H7.46173V1.38998C7.46194 1.26716 7.51082 1.14944 7.59767 1.06259C7.68451 0.975749 7.80224 0.926867 7.92505 0.926656ZM10.7329 13.0734H7.92505C7.80224 13.0731 7.68451 13.0243 7.59767 12.9374C7.51082 12.8506 7.46194 12.7328 7.46173 12.61V4.40158H11.1962V12.61C11.196 12.7328 11.1471 12.8506 11.0602 12.9374C10.9734 13.0243 10.8557 13.0731 10.7329 13.0734ZM13.2214 1.09676e-05C13.1605 -9.3897e-05 13.1002 0.0118187 13.044 0.0350657C12.9877 0.0583127 12.9366 0.0924368 12.8936 0.135481C12.8505 0.178526 12.8164 0.229644 12.7932 0.285904C12.7699 0.342164 12.758 0.40246 12.7581 0.463334V13.5335C12.7581 13.6567 12.807 13.7748 12.8942 13.862C12.9813 13.9491 13.0994 13.998 13.2226 13.998C13.3458 13.998 13.464 13.9491 13.5511 13.862C13.6382 13.7748 13.6871 13.6567 13.6871 13.5335V0.463334C13.6872 0.402258 13.6752 0.341766 13.6518 0.285349C13.6285 0.228932 13.5941 0.177707 13.5508 0.134631C13.5075 0.0915553 13.4561 0.0574812 13.3996 0.0343756C13.343 0.01127 13.2825 -0.000409614 13.2214 1.09676e-05Z" fill="black"/>
<path d="M2.53238 2.14941C2.52947 2.22854 2.54254 2.30744 2.57082 2.38141C2.59909 2.45537 2.64199 2.52288 2.69694 2.57989C2.75189 2.6369 2.81778 2.68225 2.89065 2.71323C2.96353 2.7442 3.0419 2.76016 3.12109 2.76016C3.20027 2.76016 3.27864 2.7442 3.35152 2.71323C3.4244 2.68225 3.49028 2.6369 3.54523 2.57989C3.60019 2.52288 3.64308 2.45537 3.67136 2.38141C3.69963 2.30744 3.7127 2.22854 3.70979 2.14941C3.70419 1.99702 3.63971 1.85274 3.52992 1.74691C3.42013 1.64109 3.27358 1.58195 3.12109 1.58195C2.9686 1.58195 2.82205 1.64109 2.71225 1.74691C2.60246 1.85274 2.53799 1.99702 2.53238 2.14941ZM8.75539 2.14941C8.75539 2.26592 8.78994 2.37982 8.85468 2.4767C8.91941 2.57357 9.01141 2.64908 9.11906 2.69367C9.2267 2.73826 9.34515 2.74992 9.45943 2.72719C9.5737 2.70446 9.67867 2.64835 9.76106 2.56597C9.84345 2.48358 9.89955 2.37861 9.92228 2.26434C9.94501 2.15006 9.93335 2.03161 9.88876 1.92397C9.84417 1.81632 9.76867 1.72432 9.67179 1.65958C9.57491 1.59485 9.46101 1.5603 9.3445 1.5603C9.26714 1.5603 9.19053 1.57554 9.11906 1.60515C9.04758 1.63475 8.98264 1.67814 8.92794 1.73285C8.87324 1.78755 8.82984 1.85249 8.80024 1.92397C8.77063 1.99544 8.75539 2.07204 8.75539 2.14941Z" fill="black"/>
</g>
<defs>
<clipPath id="clip0_1045_1487">
<rect width="14" height="14" fill="white"/>
</clipPath>
</defs>
</svg>
