<svg width="24" height="24" viewBox="0 0 24 24" fill="none" xmlns="http://www.w3.org/2000/svg">
<path d="M18.4751 3L18.6416 3.00857C19.3953 3.0943 19.9883 3.74869 20 4.54882V7.55215L18.627 6.82061V4.57168L18.4751 4.42308L2.52783 4.41451L2.37592 4.56311V11.7471H2.36424V14.7104H2.37592V16.3221L2.52783 16.4707L11.4348 16.4764C11.5633 16.6565 11.7328 16.8079 11.9343 16.9136L13.7718 17.8938H11.3384L11.1865 18.0424V19.434L11.3384 19.5826H13.8565L13.9792 19.5941C14.3006 19.6541 14.5431 19.9427 14.5431 20.2913C14.5431 20.6799 14.2392 20.9914 13.8653 21H7.14345L7.02076 20.9886C6.69942 20.9286 6.45403 20.6399 6.45403 20.2913C6.45403 19.9027 6.75784 19.5912 7.13177 19.5826H9.66159L9.8135 19.434V18.0424L9.66159 17.8938H2.52491L2.35839 17.8852C1.6047 17.7995 1.01169 17.148 1 16.3478V4.57168L1.00876 4.40022C1.09056 3.6201 1.7274 3.01143 2.50154 3H18.4751Z" fill="black"/>
<path d="M18.4506 6.08733C18.1575 5.96942 17.837 5.97237 17.5439 6.08733L17.3741 6.16987L12.7259 8.89654L12.556 9.0115C12.252 9.25321 12.052 9.62758 12.0082 10.0403L12 10.2201V16.7641L12.0137 16.9852C12.0657 17.4008 12.2739 17.7693 12.578 18.0051L12.7149 18.0965L17.3577 20.8202L17.5439 20.9116C17.837 21.0295 18.1602 21.0295 18.4533 20.9116L18.6259 20.8261L23.2714 18.1024L23.4412 17.9874C23.7453 17.7457 23.9452 17.3713 23.989 16.9586L24 16.7788V10.2348L23.9863 10.0137C23.9343 9.5981 23.7261 9.22963 23.422 8.99381L23.2851 8.90243L18.6368 6.17871L18.4506 6.08733ZM18.1 7.39318L22.5538 10.0697L22.6633 10.2702V16.7228L22.5538 16.9233L18.1 19.5998H17.8918L13.3969 16.9262L13.2874 16.7258V10.2702L13.3969 10.0697L17.8918 7.39613L18.1 7.39318Z" fill="black"/>
<path d="M18 16C16.3455 16 15 14.8788 15 13.5C15 12.1212 16.3455 11 18 11C19.6545 11 21 12.1212 21 13.5C21 14.8788 19.6545 16 18 16ZM18 12.0354C17.0303 12.0354 16.2424 12.6919 16.2424 13.5C16.2424 14.3081 17.0303 14.9646 18 14.9646C18.9697 14.9646 19.7576 14.3081 19.7576 13.5C19.7576 12.6919 18.9697 12.0354 18 12.0354Z" fill="black"/>
</svg>
