<svg width="14" height="14" viewBox="0 0 14 14" fill="none" xmlns="http://www.w3.org/2000/svg">
<path d="M11.9999 8.97907V1.25H1.99988V12.75H11.9999V11.25" stroke="black" stroke-linecap="round"/>
<path d="M1.99988 4.75H11.9999M3.49988 6.75H6.49988M3.49988 8.75H6.49988M3.49988 10.75H9.99988" stroke="black" stroke-linecap="round"/>
<path d="M10.3771 7.62329C10.3771 8.30893 9.82126 8.86475 9.13562 8.86475C8.44998 8.86475 7.89417 8.30893 7.89417 7.62329C7.89417 6.93765 8.44998 6.38184 9.13562 6.38184C9.82126 6.38184 10.3771 6.93765 10.3771 7.62329Z" stroke="black"/>
<circle cx="0.452148" cy="0.452148" r="0.452148" transform="matrix(1 0 0 -1 3.43945 3.49854)" fill="black"/>
<circle cx="0.452148" cy="0.452148" r="0.452148" transform="matrix(1 0 0 -1 5.2196 3.49854)" fill="black"/>
<circle cx="0.452148" cy="0.452148" r="0.452148" transform="matrix(1 0 0 -1 6.99988 3.49854)" fill="black"/>
</svg>
