<svg width="14" height="14" viewBox="0 0 14 14" fill="none" xmlns="http://www.w3.org/2000/svg">
<g clip-path="url(#clip0_1045_1500)">
<path d="M4.21094 9.1875C5.41907 9.1875 6.39844 10.1669 6.39844 11.375C6.39844 12.5831 5.41907 13.5625 4.21094 13.5625C3.15265 13.5625 2.2699 12.811 2.0672 11.8125L0.875 11.8125C0.633377 11.8125 0.4375 11.6166 0.4375 11.375C0.4375 11.1334 0.633377 10.9375 0.875 10.9375L2.06719 10.9375C2.2699 9.93902 3.15267 9.1875 4.21094 9.1875ZM4.21094 10.0625C3.48605 10.0625 2.89844 10.6501 2.89844 11.375C2.89844 12.0999 3.48605 12.6875 4.21094 12.6875C4.93582 12.6875 5.52344 12.0999 5.52344 11.375C5.52344 10.6501 4.93582 10.0625 4.21094 10.0625ZM13.125 10.9375C13.3666 10.9375 13.5625 11.1334 13.5625 11.375C13.5625 11.6166 13.3666 11.8125 13.125 11.8125H7.90234C7.66072 11.8125 7.46484 11.6166 7.46484 11.375C7.46484 11.1334 7.66072 10.9375 7.90234 10.9375H13.125ZM9.78906 4.8125C10.8473 4.8125 11.7301 5.56402 11.9328 6.56247L13.125 6.5625C13.3666 6.5625 13.5625 6.75838 13.5625 7C13.5625 7.24162 13.3666 7.4375 13.125 7.4375L11.9328 7.43754C11.7301 8.436 10.8473 9.1875 9.78906 9.1875C8.58093 9.1875 7.60156 8.20813 7.60156 7C7.60156 5.79187 8.58093 4.8125 9.78906 4.8125ZM9.78906 5.6875C9.06418 5.6875 8.47656 6.27512 8.47656 7C8.47656 7.72488 9.06418 8.3125 9.78906 8.3125C10.5139 8.3125 11.1016 7.72488 11.1016 7C11.1016 6.27512 10.5139 5.6875 9.78906 5.6875ZM6.09766 6.5625C6.33928 6.5625 6.53516 6.75838 6.53516 7C6.53516 7.24162 6.33928 7.4375 6.09766 7.4375H0.875C0.633377 7.4375 0.4375 7.24162 0.4375 7C0.4375 6.75838 0.633377 6.5625 0.875 6.5625H6.09766ZM4.21094 0.4375C5.41907 0.4375 6.39844 1.41687 6.39844 2.625C6.39844 3.83313 5.41907 4.8125 4.21094 4.8125C3.15265 4.8125 2.2699 4.061 2.0672 3.06254L0.875 3.0625C0.633377 3.0625 0.4375 2.86662 0.4375 2.625C0.4375 2.38338 0.633377 2.1875 0.875 2.1875L2.06719 2.18747C2.2699 1.18902 3.15267 0.4375 4.21094 0.4375ZM4.21094 1.3125C3.48605 1.3125 2.89844 1.90012 2.89844 2.625C2.89844 3.34988 3.48605 3.9375 4.21094 3.9375C4.93582 3.9375 5.52344 3.34988 5.52344 2.625C5.52344 1.90012 4.93582 1.3125 4.21094 1.3125ZM13.125 2.1875C13.3666 2.1875 13.5625 2.38338 13.5625 2.625C13.5625 2.86662 13.3666 3.0625 13.125 3.0625H7.90234C7.66072 3.0625 7.46484 2.86662 7.46484 2.625C7.46484 2.38338 7.66072 2.1875 7.90234 2.1875H13.125Z" fill="black"/>
</g>
<defs>
<clipPath id="clip0_1045_1500">
<rect width="14" height="14" fill="white"/>
</clipPath>
</defs>
</svg>
