<svg width="14" height="14" viewBox="0 0 14 14" fill="none" xmlns="http://www.w3.org/2000/svg">
<path d="M7.31823 7.57264C8.27277 6.99991 8.90914 5.98173 8.90914 4.83628C8.90914 3.05446 7.4455 1.59082 5.66368 1.59082C3.88186 1.59082 2.29095 3.05446 2.29095 4.83628C2.29095 5.98173 2.92732 6.99991 3.88186 7.57264C2.16368 8.209 0.95459 9.86355 0.95459 11.8363C0.95459 12.1545 1.20914 12.409 1.52732 12.409C1.8455 12.409 2.10004 12.1545 2.10004 11.8363C2.10004 9.92718 3.69095 8.33628 5.60004 8.33628C7.57277 8.33628 9.10004 9.92718 9.10004 11.8363C9.10004 12.1545 9.35459 12.409 9.67277 12.409C9.99095 12.409 10.2455 12.1545 10.2455 11.8363C10.2455 9.92718 9.03641 8.27264 7.31823 7.57264ZM5.60004 6.99991C4.39095 6.99991 3.43641 6.04537 3.43641 4.83628C3.43641 3.62718 4.39095 2.67264 5.60004 2.67264C6.80914 2.67264 7.76368 3.62718 7.76368 4.83628C7.76368 6.04537 6.80914 6.99991 5.60004 6.99991ZM10.4364 4.709H12.5364C12.8546 4.709 13.0455 4.45446 13.0455 4.19991C13.0455 3.88173 12.791 3.69082 12.5364 3.69082H10.4364C10.1182 3.69082 9.92732 3.94537 9.92732 4.19991C9.86368 4.45446 10.1182 4.709 10.4364 4.709Z" fill="black"/>
<path d="M12.5363 5.66357H9.86358C9.5454 5.66357 9.35449 5.91812 9.35449 6.17267C9.35449 6.49085 9.60904 6.68176 9.86358 6.68176H12.5363C12.8545 6.68176 13.0454 6.42721 13.0454 6.17267C13.0454 5.91812 12.7909 5.66357 12.5363 5.66357ZM12.5363 7.69994H10.4363C10.1181 7.69994 9.92722 7.95448 9.92722 8.20903C9.92722 8.52721 10.1818 8.71812 10.4363 8.71812H12.5363C12.8545 8.71812 13.0454 8.46357 13.0454 8.20903C13.0454 7.95448 12.7909 7.69994 12.5363 7.69994Z" fill="black"/>
</svg>
