<svg width="24" height="24" viewBox="0 0 24 24" fill="none" xmlns="http://www.w3.org/2000/svg">
<path d="M21.75 13.2C21.5511 13.2 21.3603 13.1209 21.2197 12.9803C21.079 12.8396 21 12.6489 21 12.45V8.69995C21 8.50104 21.079 8.31027 21.2197 8.16962C21.3603 8.02897 21.5511 7.94995 21.75 7.94995C21.9489 7.94995 22.1397 8.02897 22.2803 8.16962C22.421 8.31027 22.5 8.50104 22.5 8.69995V12.45C22.5 12.6489 22.421 12.8396 22.2803 12.9803C22.1397 13.1209 21.9489 13.2 21.75 13.2Z" fill="black"/>
<path d="M12.084 12.3001C11.5965 12.3001 11.1735 12.2341 10.7505 12.0901L1.155 8.43456C0.1485 8.02356 0 7.39056 0 7.05006C0 6.70806 0.1485 6.07506 1.1385 5.67156L10.6395 2.02056C11.3715 1.73706 12.6255 1.73556 13.362 2.02056L22.8465 5.66556C23.8515 6.07356 24 6.70806 24 7.05006C24 7.39206 23.8515 8.02356 22.86 8.42856L13.3605 12.0796C13.0485 12.2221 12.618 12.3001 12.084 12.3001ZM1.7325 7.05006L11.259 10.6771C11.5035 10.7611 11.757 10.8001 12.084 10.8001C12.471 10.8001 12.678 10.7431 12.7815 10.6966L22.266 7.05006L12.822 3.42156C12.429 3.26856 11.568 3.27006 11.1795 3.42156L1.7325 7.05006Z" fill="black"/>
<path d="M12.084 15.0975C11.598 15.0975 11.175 15.03 10.7505 14.886L4.22253 12.402L4.75503 10.9995L11.2575 13.476C11.5035 13.5585 11.757 13.599 12.0825 13.599C12.468 13.599 12.675 13.542 12.78 13.494L19.2285 11.0145L19.767 12.4155L13.3605 14.877C13.047 15.021 12.6165 15.0975 12.084 15.0975Z" fill="black"/>
<path d="M12.081 22.2C8.2185 22.2 3.9645 21.0195 3.753 18.426L3.75 11.7C3.75 11.501 3.82902 11.3103 3.96967 11.1696C4.11032 11.029 4.30109 10.95 4.5 10.95C4.69891 10.95 4.88968 11.029 5.03033 11.1696C5.17098 11.3103 5.25 11.501 5.25 11.7V18.2865C5.3535 19.602 8.4825 20.7 12.081 20.7C14.9115 20.7 17.526 20.0355 18.4395 19.0845C18.6585 18.858 18.759 18.6315 18.7485 18.396V11.754C18.7485 11.555 18.8275 11.3643 18.9682 11.2236C19.1088 11.083 19.2996 11.004 19.4985 11.004C19.6974 11.004 19.8882 11.083 20.0288 11.2236C20.1695 11.3643 20.2485 11.555 20.2485 11.754V18.2865C20.2755 18.981 20.0235 19.599 19.5225 20.1225C18.051 21.654 14.715 22.2 12.081 22.2Z" fill="black"/>
<path d="M21 14.7C21 14.8989 21.079 15.0896 21.2197 15.2303C21.3603 15.3709 21.5511 15.45 21.75 15.45C21.9489 15.45 22.1397 15.3709 22.2803 15.2303C22.421 15.0896 22.5 14.8989 22.5 14.7C22.5 14.501 22.421 14.3103 22.2803 14.1696C22.1397 14.029 21.9489 13.95 21.75 13.95C21.5511 13.95 21.3603 14.029 21.2197 14.1696C21.079 14.3103 21 14.501 21 14.7Z" fill="black"/>
</svg>
